# xmcd CD database file
#
# Track frame offsets:
#	150
#	16155
#	33730
#	48205
#	63097
#	75910
#	93405
#	105332
#	119072
#	138505
#	152612
#	167427
#	181062
#	197277
#
# Disc length: 2771 seconds
#
# Revision: 1
# Processed by: cddbd v1.4PL0 Copyright (c) Steve Scherf et al.
# Submitted via: CDex 1.40Beta8
#
DISCID=9d0ad10e
DTITLE=Kenny Rogers - Biography, A Musical Anthology
DYEAR=1999
DGENRE=Country
TTITLE0=The Gambler
TTITLE1=All My Life
TTITLE2=Love The World Away
TTITLE3=Share Your Love With Me
TTITLE4=Laura
TTITLE5=Lady
TTITLE6=Blaze of Glory
TTITLE7=What Are We Doin' In Love
TTITLE8=Sweet Music Man
TTITLE9=All I Ever Need Is You
TTITLE10=Love Song
TTITLE11=Every Time Two Fools Collide
TTITLE12=Lucille
TTITLE13=Anyone Who Isn't Me
EXTD=YEAR: 1999 ID3G: 2
EXTT0=
EXTT1=
EXTT2=
EXTT3=
EXTT4=
EXTT5=
EXTT6=
EXTT7=
EXTT8=
EXTT9=
EXTT10=
EXTT11=
EXTT12=
EXTT13=
PLAYORDER=
